<svg xmlns="http://www.w3.org/2000/svg" viewBox="7 4 46 35" shape-rendering="crispEdges">
<rect x="16" y="22" width="2" height="2" fill="#555555"/>
<rect x="12" y="24" width="2" height="2" fill="#555555"/>
<rect x="20" y="24" width="2" height="2" fill="#555555"/>
<rect x="10" y="26" width="2" height="2" fill="#555555"/>
<rect x="22" y="26" width="2" height="2" fill="#555555"/>
<rect x="10" y="28" width="2" height="2" fill="#555555"/>
<rect x="22" y="28" width="2" height="2" fill="#555555"/>
<rect x="10" y="30" width="2" height="2" fill="#555555"/>
<rect x="22" y="30" width="2" height="2" fill="#555555"/>
<rect x="12" y="32" width="2" height="2" fill="#555555"/>
<rect x="20" y="32" width="2" height="2" fill="#555555"/>
<rect x="16" y="34" width="2" height="2" fill="#555555"/>
<rect x="16" y="28" width="2" height="2" fill="#777777"/>
<rect x="16" y="25" width="2" height="2" fill="#555555" opacity="0.4"/>
<rect x="16" y="31" width="2" height="2" fill="#555555" opacity="0.4"/>
<rect x="13" y="28" width="2" height="2" fill="#555555" opacity="0.4"/>
<rect x="19" y="28" width="2" height="2" fill="#555555" opacity="0.4"/>
<rect x="44" y="22" width="2" height="2" fill="#555555"/>
<rect x="40" y="24" width="2" height="2" fill="#555555"/>
<rect x="48" y="24" width="2" height="2" fill="#555555"/>
<rect x="38" y="26" width="2" height="2" fill="#555555"/>
<rect x="50" y="26" width="2" height="2" fill="#555555"/>
<rect x="38" y="28" width="2" height="2" fill="#555555"/>
<rect x="50" y="28" width="2" height="2" fill="#555555"/>
<rect x="38" y="30" width="2" height="2" fill="#555555"/>
<rect x="50" y="30" width="2" height="2" fill="#555555"/>
<rect x="40" y="32" width="2" height="2" fill="#555555"/>
<rect x="48" y="32" width="2" height="2" fill="#555555"/>
<rect x="44" y="34" width="2" height="2" fill="#555555"/>
<rect x="44" y="28" width="2" height="2" fill="#777777"/>
<rect x="44" y="25" width="2" height="2" fill="#555555" opacity="0.4"/>
<rect x="44" y="31" width="2" height="2" fill="#555555" opacity="0.4"/>
<rect x="41" y="28" width="2" height="2" fill="#555555" opacity="0.4"/>
<rect x="47" y="28" width="2" height="2" fill="#555555" opacity="0.4"/>
<rect x="18" y="28" width="2" height="2" fill="#EAB308"/>
<rect x="20" y="26" width="2" height="2" fill="#EAB308"/>
<rect x="22" y="24" width="2" height="2" fill="#EAB308"/>
<rect x="24" y="22" width="2" height="2" fill="#EAB308"/>
<rect x="26" y="28" width="2" height="2" fill="#EAB308"/>
<rect x="28" y="26" width="2" height="2" fill="#EAB308"/>
<rect x="30" y="24" width="2" height="2" fill="#EAB308"/>
<rect x="32" y="24" width="2" height="2" fill="#EAB308"/>
<rect x="34" y="24" width="2" height="2" fill="#EAB308"/>
<rect x="36" y="26" width="2" height="2" fill="#EAB308"/>
<rect x="38" y="28" width="2" height="2" fill="#EAB308"/>
<rect x="24" y="28" width="2" height="2" fill="#EAB308"/>
<rect x="22" y="28" width="2" height="2" fill="#EAB308"/>
<rect x="36" y="20" width="2" height="2" fill="#EAB308"/>
<rect x="38" y="22" width="2" height="2" fill="#EAB308"/>
<rect x="22" y="21.5" width="2" height="2" fill="#EAB308"/>
<rect x="24" y="21.5" width="2" height="2" fill="#EAB308"/>
<rect x="26" y="21.5" width="2" height="2" fill="#EAB308"/>
<rect x="24" y="18" width="2" height="2" fill="#3B82F6"/>
<rect x="26" y="16" width="2" height="2" fill="#3B82F6"/>
<rect x="28" y="14" width="2" height="2" fill="#3B82F6"/>
<rect x="30" y="12" width="2" height="2" fill="#D4A574"/>
<rect x="30" y="8" width="2" height="2" fill="#D4A574"/>
<rect x="32" y="8" width="2" height="2" fill="#D4A574"/>
<rect x="30" y="10" width="2" height="2" fill="#D4A574"/>
<rect x="32" y="10" width="2" height="2" fill="#D4A574"/>
<rect x="30" y="5" width="2" height="2" fill="#EC4899"/>
<rect x="32" y="5" width="2" height="2" fill="#EC4899"/>
<rect x="28" y="7" width="2" height="2" fill="#EC4899"/>
<rect x="30" y="6" width="2" height="2" fill="#EC4899"/>
<rect x="32" y="6" width="2" height="2" fill="#EC4899"/>
<rect x="34" y="6" width="2" height="2" fill="#EC4899"/>
<rect x="30" y="16" width="2" height="2" fill="#3B82F6"/>
<rect x="32" y="18" width="2" height="2" fill="#D4A574"/>
<rect x="33" y="20" width="2" height="2" fill="#D4A574"/>
<rect x="24" y="20" width="2" height="2" fill="#18181B"/>
<rect x="24" y="22" width="2" height="2" fill="#18181B"/>
<rect x="26" y="24" width="2" height="2" fill="#18181B"/>
<rect x="26" y="26" width="2" height="2" fill="#D4A574"/>
<rect x="26" y="28" width="2" height="2" fill="#D4A574"/>
<rect x="26" y="30" width="2" height="2" fill="#06B6D4"/>
<rect x="23" y="28" width="2" height="2" fill="#06B6D4"/>
<rect x="36" y="22" width="2" height="2" fill="#D4A574"/>
<rect x="32" y="8" width="2" height="2" fill="#1E293B"/>
<rect x="34" y="8" width="2" height="2" fill="#1E293B"/>
<rect x="8" y="36" width="44" height="1" fill="#000000" opacity="0.12"/>
<rect x="14" y="37" width="32" height="1" fill="#000000" opacity="0.06"/>
</svg>