<svg xmlns="http://www.w3.org/2000/svg" viewBox="21 17 18 25" shape-rendering="crispEdges">
<rect x="30" y="30" width="2" height="2" fill="#3B82F6"/>
<rect x="30" y="28" width="2" height="2" fill="#3B82F6"/>
<rect x="28" y="26" width="2" height="2" fill="#3B82F6"/>
<rect x="30" y="26" width="2" height="2" fill="#3B82F6"/>
<rect x="32" y="26" width="2" height="2" fill="#3B82F6"/>
<rect x="30" y="24" width="2" height="2" fill="#3B82F6"/>
<rect x="30" y="20" width="2" height="2" fill="#D4A574"/>
<rect x="32" y="20" width="2" height="2" fill="#D4A574"/>
<rect x="30" y="22" width="2" height="2" fill="#D4A574"/>
<rect x="32" y="22" width="2" height="2" fill="#D4A574"/>
<rect x="28" y="18" width="2" height="2" fill="#EC4899"/>
<rect x="30" y="18" width="2" height="2" fill="#EC4899"/>
<rect x="32" y="18" width="2" height="2" fill="#EC4899"/>
<rect x="34" y="20" width="2" height="2" fill="#EC4899"/>
<rect x="26" y="26" width="2" height="2" fill="#D4A574"/>
<rect x="24" y="24" width="2" height="2" fill="#D4A574"/>
<rect x="34" y="26" width="2" height="2" fill="#D4A574"/>
<rect x="36" y="28" width="2" height="2" fill="#D4A574"/>
<rect x="28" y="32" width="2" height="2" fill="#1E293B"/>
<rect x="26" y="34" width="2" height="2" fill="#1E293B"/>
<rect x="26" y="36" width="2" height="2" fill="#D4A574"/>
<rect x="26" y="38" width="2" height="2" fill="#06B6D4"/>
<rect x="32" y="32" width="2" height="2" fill="#1E293B"/>
<rect x="34" y="33" width="2" height="2" fill="#1E293B"/>
<rect x="36" y="31" width="2" height="2" fill="#06B6D4"/>
<rect x="24" y="24" width="2" height="2" fill="#D4A574"/>
<rect x="36" y="28" width="2" height="2" fill="#D4A574"/>
<rect x="30" y="21" width="2" height="1" fill="#1E293B"/>
<rect x="32" y="21" width="2" height="1" fill="#1E293B"/>
<rect x="22" y="39" width="16" height="1" fill="#000000" opacity="0.12"/>
<rect x="25" y="40" width="10" height="1" fill="#000000" opacity="0.06"/>
</svg>